<?xml version="1.0" standalone="no"?><!DOCTYPE svg PUBLIC "-//W3C//DTD SVG 1.1//EN" "http://www.w3.org/Graphics/SVG/1.1/DTD/svg11.dtd"><svg t="1600952408683" class="icon" viewBox="0 0 1024 1024" version="1.1" xmlns="http://www.w3.org/2000/svg" p-id="1155" xmlns:xlink="http://www.w3.org/1999/xlink" width="200" height="200"><defs><style type="text/css"></style></defs><path d="M926.25224691 714.98360098l-0.12427568 128.41819655-828.38021814 0.24855136V714.98360098c94.4495123-19.22130427 165.70089876-102.94168336 165.70089876-202.94217575a207.49895049 207.49895049 0 0 0-165.70089876-202.983601l0.16570089-128.45962176L926.25224691 180.3082259V309.01639902A207.5403757 207.5403757 0 0 0 760.55134815 512a207.5403757 207.5403757 0 0 0 165.70089876 202.98360098M967.67747161 387.72432592h41.42522469V180.3082259A82.85044939 82.85044939 0 0 0 926.12797123 97.74775309H97.87202877a82.85044939 82.85044939 0 0 0-83.01615028 82.56047281V387.72432592h41.42522468c68.55874686 0 124.27567408 55.7169272 124.27567408 124.27567408 0 68.51732163-55.7169272 124.27567408-124.27567408 124.27567408H14.8973037v207.37467481A82.85044939 82.85044939 0 0 0 97.83060354 926.25224691h828.29736769A82.85044939 82.85044939 0 0 0 1009.1026963 843.65034889V636.27567408h-41.42522469c-68.51732163 0-124.27567408-55.75835244-124.27567408-124.27567408 0-68.55874686 55.75835244-124.27567408 124.27567408-124.27567408" p-id="1156"></path><path d="M636.27567408 528.57008987a28.99765728 28.99765728 0 1 0 0-57.99531456h-83.34755209c0.08285045-0.12427568 0.20712613-0.12427568 0.28997658-0.20712613l82.85044938-82.85044937a28.99765728 28.99765728 0 1 0-41.01097245-41.01097245l-82.85044937 82.85044939-0.20712613 0.28997656-0.20712613-0.33140179-82.85044937-82.85044939a28.99765728 28.99765728 0 0 0-41.01097245 41.05239768l82.85044938 82.85044937c0.08285045 0.08285045 0.20712613 0.08285045 0.28997658 0.20712613H387.72432592a28.99765728 28.99765728 0 1 0 0 57.99531456h95.2780168V594.85044939H387.72432592a28.99765728 28.99765728 0 1 0 0 57.99531456h95.2780168V677.70089876a28.99765728 28.99765728 0 0 0 57.99531456 0v-24.85513481H636.27567408a28.99765728 28.99765728 0 1 0 0-57.99531456h-95.2780168v-66.28035952H636.27567408z" p-id="1157"></path></svg>