<?xml version="1.0" standalone="no"?><!DOCTYPE svg PUBLIC "-//W3C//DTD SVG 1.1//EN" "http://www.w3.org/Graphics/SVG/1.1/DTD/svg11.dtd"><svg t="1600952420859" class="icon" viewBox="0 0 1024 1024" version="1.1" xmlns="http://www.w3.org/2000/svg" p-id="1407" xmlns:xlink="http://www.w3.org/1999/xlink" width="200" height="200"><defs><style type="text/css"></style></defs><path d="M219.04853333 269.296l140.23786667 400.33066667-29.408-20.8576h585.5872c17.2128 0 31.16053333 13.952 31.16053333 31.1616 0 17.20426667-13.94773333 31.152-31.16053333 31.152H329.87733333a31.14986667 31.14986667 0 0 1-29.40373333-20.85333334L82.18666667 67.09013333l29.40586666 20.8576H48.62613333c-17.20533333 0-31.1552-13.94666667-31.1552-31.16053333 0-17.20426667 13.94986667-31.15413333 31.1552-31.15413333h62.96746667a31.1552 31.1552 0 0 1 29.4048 20.85866666l56.24426667 160.56106667h758.1056c19.71946667 0 34.48106667 18.0928 30.52053333 37.41653333l-49.74293333 242.54933334a31.16266667 31.16266667 0 0 1-27.07413334 24.704L448.768 562.992c-17.10506667 1.90506667-32.51413333-10.4128-34.41813333-27.51786667-1.90186667-17.09866667 10.416-32.50666667 27.52-34.40746666l438.18346666-50.28906667s22.14293333-102.528 38.32106667-181.41333333c0.35733333-1.7376-566.33386667-0.40533333-699.32586667-0.06826667z m181.41866667 569.50186667c24.91946667 0 45.1936 20.272 45.1936 45.1904 0 24.91733333-20.27413333 45.18933333-45.1936 45.18933333-24.91733333 0-45.18826667-20.272-45.18826667-45.18933333 0-24.9184 20.27093333-45.1904 45.18826667-45.1904m0-59.4976c-57.81546667 0-104.6848 46.87146667-104.6848 104.688 0 57.8208 46.86933333 104.68586667 104.6848 104.68586666s104.69013333-46.86613333 104.69013333-104.68586666c0-57.81653333-46.8736-104.688-104.69013333-104.688z m436.19733333 59.4976c24.9152 0 45.184 20.272 45.184 45.1904 0 24.91733333-20.2688 45.18933333-45.184 45.18933333-24.91733333 0-45.18933333-20.272-45.18933333-45.18933333 0-24.9184 20.272-45.1904 45.18933333-45.1904m0-59.4976c-57.8208 0-104.68693333 46.87146667-104.68693333 104.688 0 57.8208 46.8672 104.68586667 104.68693333 104.68586666 57.81333333 0 104.6816-46.86613333 104.6816-104.68586666 0-57.81653333-46.86826667-104.688-104.68266666-104.688z m0 209.37386666" p-id="1408"></path></svg>