<?xml version="1.0" standalone="no"?><!DOCTYPE svg PUBLIC "-//W3C//DTD SVG 1.1//EN" "http://www.w3.org/Graphics/SVG/1.1/DTD/svg11.dtd"><svg t="1600952400574" class="icon" viewBox="0 0 1024 1024" version="1.1" xmlns="http://www.w3.org/2000/svg" p-id="1029" xmlns:xlink="http://www.w3.org/1999/xlink" width="200" height="200"><defs><style type="text/css"></style></defs><path d="M35.84 0v1024h952.32V0H35.84z m890.88 952.32H97.28V512h179.2v-71.68H97.28V291.84h296.96v-71.68H97.28V71.68h829.44v880.64z" p-id="1030"></path><path d="M849.92 404.48c-15.36-10.24-35.84-5.12-46.08 10.24L563.2 808.96 404.48 675.84c-15.36-10.24-35.84-10.24-51.2 5.12-10.24 15.36-10.24 35.84 5.12 51.2l189.44 153.6c5.12 5.12 15.36 10.24 20.48 10.24h5.12c10.24 0 15.36-5.12 20.48-15.36l261.12-424.96c15.36-20.48 10.24-40.96-5.12-51.2z" p-id="1031"></path></svg>