<?xml version="1.0" standalone="no"?><!DOCTYPE svg PUBLIC "-//W3C//DTD SVG 1.1//EN" "http://www.w3.org/Graphics/SVG/1.1/DTD/svg11.dtd"><svg t="1600952415889" class="icon" viewBox="0 0 1024 1024" version="1.1" xmlns="http://www.w3.org/2000/svg" p-id="1281" xmlns:xlink="http://www.w3.org/1999/xlink" width="200" height="200"><defs><style type="text/css"></style></defs><path d="M162.47466667 920.59449837V298.98311111l699.05066666-0.27185303 0.31068919 621.6502234-699.36135585 0.23301689zM512 104.80237036c64.23498903 0 116.50844445 52.23461925 116.50844445 116.50844445H395.49155555c0-64.27382518 52.27345541-116.50844445 116.50844445-116.50844445z m349.83602252 116.50844445H706.18074075c0-107.07126045-87.1094803-194.18074075-194.18074075-194.18074073s-194.18074075 87.1094803-194.18074075 194.18074073H162.16397748A77.47811555 77.47811555 0 0 0 84.80237037 298.71125808v621.88324029c0 42.71976297 34.71951645 77.43927941 77.36160711 77.43927941h699.67204504A77.5169517 77.5169517 0 0 0 939.19762963 920.59449837V298.71125808A77.47811555 77.47811555 0 0 0 861.83602252 221.31081481z" p-id="1282"></path><path d="M740.93909333 653.7124883a38.83614815 38.83614815 0 0 0-53.05017836 14.17519406A194.91862755 194.91862755 0 0 1 519.65072118 765.01688889a194.87979141 194.87979141 0 0 1-168.19935763-97.09037037 38.83614815 38.83614815 0 0 0-67.26420858 38.8749843 272.94044918 272.94044918 0 0 0 235.46356621 135.9265185 272.78510459 272.78510459 0 0 0 235.46356623-135.9265185 38.83614815 38.83614815 0 0 0-14.17519408-53.08901452" p-id="1283"></path></svg>