<?xml version="1.0" standalone="no"?><!DOCTYPE svg PUBLIC "-//W3C//DTD SVG 1.1//EN" "http://www.w3.org/Graphics/SVG/1.1/DTD/svg11.dtd"><svg t="1600952392706" class="icon" viewBox="0 0 1024 1024" version="1.1" xmlns="http://www.w3.org/2000/svg" p-id="900" xmlns:xlink="http://www.w3.org/1999/xlink" width="200" height="200"><defs><style type="text/css"></style></defs><path d="M931.21422222 931.56920889s0 93.24999111-93.24999111 93.24999111H185.21429333c-93.24999111 0-93.24999111-93.24999111-93.24999111-93.24999111S42.38904889 574.02936889 355.37351111 485.17233778c-46.91854222-51.17041778-76.90808889-124.27377778-76.90808889-206.35306667 0-154.50112 104.37518222-279.74997333 233.12497778-279.74997333s233.12497778 125.24885333 233.12497778 279.74997333c0 82.07815111-29.98499555 155.18151111-76.90808889 206.35306667 312.98332445 88.85703111 263.40693333 446.39687111 263.40693333 446.39687111zM511.5904 92.31928889s-139.87498667 0-139.87498667 186.49998222S511.5904 465.31925333 511.5904 465.31925333s139.87498667 0 139.87498667-186.49998222S511.5904 92.31928889 511.5904 92.31928889z m0 466.24995556c-372.99996445 0-326.37496889 372.99996445-326.37496889 372.99996444h652.74993778c-0.00113778 0 46.62385778-372.99996445-326.37496889-372.99996444z" p-id="901"></path></svg>